<svg width="20" height="20" viewBox="0 0 20 20" fill="none" xmlns="http://www.w3.org/2000/svg">
<rect width="20" height="20" rx="4" fill="#00FFFF" fill-opacity="0.1"/>
<rect x="0.5" y="0.5" width="19" height="19" rx="3.5" stroke="#00FFFF" stroke-opacity="0.2"/>
<g clip-path="url(#clip0_73_216)">
<path d="M10 3C6.13483 3 3 6.13425 3 10C3 13.0928 5.0055 15.7167 7.78742 16.6424C8.13683 16.7072 8.25 16.4902 8.25 16.3058V15.0027C6.30283 15.4262 5.89275 14.1767 5.89275 14.1767C5.57425 13.3676 5.11517 13.1523 5.11517 13.1523C4.47992 12.7177 5.16358 12.7271 5.16358 12.7271C5.8665 12.7761 6.23633 13.4487 6.23633 13.4487C6.8605 14.5185 7.87375 14.2093 8.27333 14.0302C8.33575 13.5782 8.51717 13.269 8.71783 13.0946C7.16325 12.9167 5.52875 12.3164 5.52875 9.63483C5.52875 8.87008 5.80233 8.24592 6.24975 7.75592C6.17742 7.57917 5.93767 6.86692 6.318 5.90325C6.318 5.90325 6.906 5.71542 8.24358 6.62075C8.80183 6.46558 9.40033 6.388 9.99533 6.38508C10.5903 6.388 11.1894 6.46558 11.7488 6.62075C13.0852 5.71542 13.6721 5.90325 13.6721 5.90325C14.053 6.8675 13.8132 7.57975 13.7409 7.75592C14.1901 8.24592 14.4613 8.87067 14.4613 9.63483C14.4613 12.3234 12.8239 12.9155 11.2652 13.0887C11.5161 13.3057 11.7453 13.7316 11.7453 14.3849V16.3058C11.7453 16.4919 11.8573 16.7107 12.2126 16.6418C14.9922 15.7149 16.9953 13.0917 16.9953 10C16.9953 6.13425 13.8611 3 9.99533 3H10" fill="#FFFF00"/>
</g>
<defs>
<clipPath id="clip0_73_216">
<rect width="14" height="14" fill="white" transform="translate(3 3)"/>
</clipPath>
</defs>
</svg>
