<svg width="154" height="28" viewBox="0 0 154 28" fill="none" xmlns="http://www.w3.org/2000/svg">
<path d="M3 13.25V7.625H8.62497V13.25H3ZM3 20.3749V14.75H8.62497V20.3749H3ZM10.125 13.25V7.625H15.7499V13.25H10.125ZM10.125 20.3749V14.75H15.7499V20.3749H10.125ZM4.12497 12.125H7.5V8.74997H4.12497V12.125ZM11.2499 12.125H14.625V8.74997H11.2499V12.125ZM11.2499 19.25H14.625V15.8749H11.2499V19.25ZM4.12497 19.25H7.5V15.8749H4.12497V19.25Z" fill="#FFFF00"/>
<path d="M31.9478 20V7.4H37.1318C37.9238 7.4 38.6228 7.559 39.2288 7.877C39.8348 8.195 40.3088 8.642 40.6508 9.218C40.9928 9.794 41.1638 10.478 41.1638 11.27V11.522C41.1638 12.302 40.9868 12.983 40.6328 13.565C40.2788 14.147 39.7988 14.597 39.1928 14.915C38.5868 15.233 37.8998 15.392 37.1318 15.392H34.3238V20H31.9478ZM34.3238 13.232H36.8978C37.4618 13.232 37.9178 13.076 38.2658 12.764C38.6138 12.452 38.7878 12.026 38.7878 11.486V11.306C38.7878 10.766 38.6138 10.34 38.2658 10.028C37.9178 9.716 37.4618 9.56 36.8978 9.56H34.3238V13.232ZM44.5838 20L47.8958 7.4H52.0358L55.3478 20H52.8998L52.2158 17.228H47.7158L47.0318 20H44.5838ZM48.2738 15.032H51.6578L50.1278 8.894H49.8038L48.2738 15.032ZM65.1398 20.252C63.5798 20.252 62.3438 19.817 61.4318 18.947C60.5198 18.077 60.0638 16.832 60.0638 15.212V12.188C60.0638 10.568 60.5198 9.323 61.4318 8.453C62.3438 7.583 63.5798 7.148 65.1398 7.148C66.6878 7.148 67.8848 7.571 68.7308 8.417C69.5768 9.263 69.9998 10.424 69.9998 11.9V12.008H67.6598V11.828C67.6598 11.084 67.4528 10.472 67.0388 9.992C66.6248 9.512 65.9918 9.272 65.1398 9.272C64.2998 9.272 63.6398 9.53 63.1598 10.046C62.6798 10.562 62.4398 11.264 62.4398 12.152V15.248C62.4398 16.124 62.6798 16.823 63.1598 17.345C63.6398 17.867 64.2998 18.128 65.1398 18.128C65.9918 18.128 66.6248 17.885 67.0388 17.399C67.4528 16.913 67.6598 16.304 67.6598 15.572V15.248H69.9998V15.5C69.9998 16.976 69.5768 18.137 68.7308 18.983C67.8848 19.829 66.6878 20.252 65.1398 20.252ZM75.5438 20V7.4H79.9538L82.1318 18.38H82.4558L84.6338 7.4H89.0438V20H86.7398V9.146H86.4158L84.2558 20H80.3318L78.1718 9.146H77.8478V20H75.5438ZM94.1558 20L97.4678 7.4H101.608L104.92 20H102.472L101.788 17.228H97.2878L96.6038 20H94.1558ZM97.8458 15.032H101.23L99.6998 8.894H99.3758L97.8458 15.032ZM110.032 20V7.4H114.55L117.052 18.38H117.376V7.4H119.716V20H115.198L112.696 9.02H112.372V20H110.032Z" fill="#FFFF00"/>
<path d="M125.71 20.252C124.414 20.252 123.385 19.898 122.623 19.19C121.861 18.482 121.48 17.492 121.48 16.22V15.032H123.856V16.22C123.856 16.784 124.012 17.225 124.324 17.543C124.636 17.861 125.074 18.02 125.638 18.02C126.166 18.02 126.577 17.864 126.871 17.552C127.165 17.24 127.312 16.796 127.312 16.22V9.56H125.152V7.4H131.128V9.56H129.688V16.22C129.688 17.528 129.334 18.527 128.626 19.217C127.918 19.907 126.946 20.252 125.71 20.252ZM137.446 20.252C136.474 20.252 135.616 20.078 134.872 19.73C134.128 19.382 133.546 18.884 133.126 18.236C132.706 17.588 132.496 16.808 132.496 15.896V15.392H134.836V15.896C134.836 16.652 135.07 17.219 135.538 17.597C136.006 17.975 136.642 18.164 137.446 18.164C138.262 18.164 138.871 18.002 139.273 17.678C139.675 17.354 139.876 16.94 139.876 16.436C139.876 16.088 139.777 15.806 139.579 15.59C139.381 15.374 139.093 15.197 138.715 15.059C138.337 14.921 137.878 14.792 137.338 14.672L136.924 14.582C136.06 14.39 135.319 14.147 134.701 13.853C134.083 13.559 133.609 13.172 133.279 12.692C132.949 12.212 132.784 11.588 132.784 10.82C132.784 10.052 132.967 9.395 133.333 8.849C133.699 8.303 134.215 7.883 134.881 7.589C135.547 7.295 136.33 7.148 137.23 7.148C138.13 7.148 138.931 7.301 139.633 7.607C140.335 7.913 140.887 8.369 141.289 8.975C141.691 9.581 141.892 10.34 141.892 11.252V11.792H139.552V11.252C139.552 10.772 139.459 10.385 139.273 10.091C139.087 9.797 138.82 9.581 138.472 9.443C138.124 9.305 137.71 9.236 137.23 9.236C136.51 9.236 135.979 9.371 135.637 9.641C135.295 9.911 135.124 10.28 135.124 10.748C135.124 11.06 135.205 11.324 135.367 11.54C135.529 11.756 135.772 11.936 136.096 12.08C136.42 12.224 136.834 12.35 137.338 12.458L137.752 12.548C138.652 12.74 139.435 12.986 140.101 13.286C140.767 13.586 141.286 13.982 141.658 14.474C142.03 14.966 142.216 15.596 142.216 16.364C142.216 17.132 142.021 17.807 141.631 18.389C141.241 18.971 140.689 19.427 139.975 19.757C139.261 20.087 138.418 20.252 137.446 20.252Z" fill="white" fill-opacity="0.5"/>
</svg>
