<svg width="391" height="160" viewBox="0 0 391 160" fill="none" xmlns="http://www.w3.org/2000/svg">
<path d="M0 21.5V0.298859H21.2011V21.5H0V21.5M0 47.7012V26.5H21.2011V47.7012H0V47.7012M26.2011 21.5V0.298859H47.4023V21.5H26.2011V21.5M26.2011 47.7012V26.5H47.4023V47.7012H26.2011V47.7012" fill="#FFFF00"/>
<path d="M66.5703 41V7.4H80.3943C82.5063 7.4 84.3703 7.824 85.9863 8.672C87.6023 9.52 88.8663 10.712 89.7783 12.248C90.6903 13.784 91.1463 15.608 91.1463 17.72V18.392C91.1463 20.472 90.6743 22.288 89.7303 23.84C88.7863 25.392 87.5063 26.592 85.8903 27.44C84.2743 28.288 82.4423 28.712 80.3943 28.712H72.9063V41H66.5703ZM72.9063 22.952H79.7703C81.2743 22.952 82.4903 22.536 83.4183 21.704C84.3463 20.872 84.8103 19.736 84.8103 18.296V17.816C84.8103 16.376 84.3463 15.24 83.4183 14.408C82.4903 13.576 81.2743 13.16 79.7703 13.16H72.9063V22.952ZM100.266 41L109.098 7.4H120.138L128.97 41H122.442L120.618 33.608H108.618L106.794 41H100.266ZM110.106 27.752H119.13L115.05 11.384H114.186L110.106 27.752ZM155.082 41.672C150.922 41.672 147.626 40.512 145.194 38.192C142.762 35.872 141.546 32.552 141.546 28.232V20.168C141.546 15.848 142.762 12.528 145.194 10.208C147.626 7.888 150.922 6.728 155.082 6.728C159.21 6.728 162.402 7.856 164.658 10.112C166.914 12.368 168.042 15.464 168.042 19.4V19.688H161.802V19.208C161.802 17.224 161.25 15.592 160.146 14.312C159.042 13.032 157.354 12.392 155.082 12.392C152.842 12.392 151.082 13.08 149.802 14.456C148.522 15.832 147.882 17.704 147.882 20.072V28.328C147.882 30.664 148.522 32.528 149.802 33.92C151.082 35.312 152.842 36.008 155.082 36.008C157.354 36.008 159.042 35.36 160.146 34.064C161.25 32.768 161.802 31.144 161.802 29.192V28.328H168.042V29C168.042 32.936 166.914 36.032 164.658 38.288C162.402 40.544 159.21 41.672 155.082 41.672ZM182.826 41V7.4H194.586L200.394 36.68H201.258L207.066 7.4H218.826V41H212.682V12.056H211.818L206.058 41H195.594L189.834 12.056H188.97V41H182.826ZM232.458 41L241.29 7.4H252.33L261.162 41H254.634L252.81 33.608H240.81L238.986 41H232.458ZM242.298 27.752H251.322L247.242 11.384H246.378L242.298 27.752ZM274.794 41V7.4H286.842L293.514 36.68H294.378V7.4H300.618V41H288.57L281.898 11.72H281.034V41H274.794Z" fill="#FFFF00"/>
<path d="M316.602 41.672C313.146 41.672 310.402 40.728 308.37 38.84C306.338 36.952 305.322 34.312 305.322 30.92V27.752H311.658V30.92C311.658 32.424 312.074 33.6 312.906 34.448C313.738 35.296 314.906 35.72 316.41 35.72C317.818 35.72 318.914 35.304 319.698 34.472C320.482 33.64 320.874 32.456 320.874 30.92V13.16H315.114V7.4H331.05V13.16H327.21V30.92C327.21 34.408 326.266 37.072 324.378 38.912C322.49 40.752 319.898 41.672 316.602 41.672ZM347.898 41.672C345.306 41.672 343.018 41.208 341.034 40.28C339.05 39.352 337.498 38.024 336.378 36.296C335.258 34.568 334.698 32.488 334.698 30.056V28.712H340.938V30.056C340.938 32.072 341.562 33.584 342.81 34.592C344.058 35.6 345.754 36.104 347.898 36.104C350.074 36.104 351.698 35.672 352.77 34.808C353.842 33.944 354.378 32.84 354.378 31.496C354.378 30.568 354.114 29.816 353.586 29.24C353.058 28.664 352.29 28.192 351.282 27.824C350.274 27.456 349.05 27.112 347.61 26.792L346.506 26.552C344.202 26.04 342.226 25.392 340.578 24.608C338.93 23.824 337.666 22.792 336.786 21.512C335.906 20.232 335.466 18.568 335.466 16.52C335.466 14.472 335.954 12.72 336.93 11.264C337.906 9.808 339.282 8.688 341.058 7.904C342.834 7.12 344.922 6.728 347.322 6.728C349.722 6.728 351.858 7.136 353.73 7.952C355.602 8.768 357.074 9.984 358.146 11.6C359.218 13.216 359.754 15.24 359.754 17.672V19.112H353.514V17.672C353.514 16.392 353.266 15.36 352.77 14.576C352.274 13.792 351.562 13.216 350.634 12.848C349.706 12.48 348.602 12.296 347.322 12.296C345.402 12.296 343.986 12.656 343.074 13.376C342.162 14.096 341.706 15.08 341.706 16.328C341.706 17.16 341.922 17.864 342.354 18.44C342.786 19.016 343.434 19.496 344.298 19.88C345.162 20.264 346.266 20.6 347.61 20.888L348.714 21.128C351.114 21.64 353.202 22.296 354.978 23.096C356.754 23.896 358.138 24.952 359.13 26.264C360.122 27.576 360.618 29.256 360.618 31.304C360.618 33.352 360.098 35.152 359.058 36.704C358.018 38.256 356.546 39.472 354.642 40.352C352.738 41.232 350.49 41.672 347.898 41.672Z" fill="#00FFFF"/>
<path d="M107.481 96C107.481 87.1634 114.645 80 123.481 80V80C132.318 80 139.481 87.1634 139.481 96V112H107.481V96Z" fill="#FF0000"/>
<path d="M155.481 96C155.481 87.1634 162.645 80 171.481 80V80C180.318 80 187.481 87.1634 187.481 96V112H155.481V96Z" fill="#00FFFF"/>
<path d="M203.481 96C203.481 87.1634 210.645 80 219.481 80V80C228.318 80 235.481 87.1634 235.481 96V112H203.481V96Z" fill="#FFB8FF"/>
<path d="M251.481 96C251.481 87.1634 258.645 80 267.481 80V80C276.318 80 283.481 87.1634 283.481 96V112H251.481V96Z" fill="#FFB852"/>
</svg>
